<svg id="Layer_1" data-name="Layer 1" xmlns="http://www.w3.org/2000/svg" viewBox="0 0 24 24"><defs><style>.cls-1{fill:#231f20;}</style></defs><path class="cls-1" d="M23.66,9.16l-.19.11A11.66,11.66,0,0,1,23.79,12,11.78,11.78,0,0,1,3.9,20.56l-.18.11A12,12,0,0,0,24,12,12.07,12.07,0,0,0,23.66,9.16ZM12,.21a11.73,11.73,0,0,1,8.2,3.33l.19-.11A12,12,0,0,0,0,12a11.84,11.84,0,0,0,.38,3l.18-.11A11.82,11.82,0,0,1,12,.21Z"/><path class="cls-1" d="M20.15,11.19l-.2.11c0,.23,0,.46,0,.7A8,8,0,0,1,7.42,18.54l-.2.11a8.19,8.19,0,0,0,13-6.65A7.2,7.2,0,0,0,20.15,11.19ZM12,4a7.94,7.94,0,0,1,4.71,1.55l.2-.12A8.2,8.2,0,0,0,3.81,12c0,.33,0,.65,0,1l.2-.11A8.11,8.11,0,0,1,4,12,8,8,0,0,1,12,4Z"/><path class="cls-1" d="M.45,15.79a.12.12,0,0,1-.09,0,.1.1,0,0,1,0-.14L20.79,3.72a.1.1,0,0,1,.14,0,.11.11,0,0,1,0,.15L.5,15.78Z"/><path class="cls-1" d="M3.28,20.62a.12.12,0,0,1-.09-.05.11.11,0,0,1,0-.14L23.62,8.54a.1.1,0,1,1,.1.18L3.34,20.6Z"/><path class="cls-1" d="M2.28,17.75a1.36,1.36,0,0,1,.54-1.9A1.38,1.38,0,1,1,4.2,18.23,1.37,1.37,0,0,1,2.28,17.75Zm2.21-1.28A1.1,1.1,0,0,0,3,16.07a1.1,1.1,0,0,0-.43,1.54,1.12,1.12,0,0,0,1.55.4A1.1,1.1,0,0,0,4.49,16.47Z"/><path class="cls-1" d="M7.89,16.06l-1-.44-.18.12-.63.36.43.74L6.3,17,5,14.65l.87-.51a1,1,0,0,1,1.42.25.84.84,0,0,1-.11,1l1,.47ZM7,14.53c-.22-.37-.59-.44-1-.17l-.62.36L6,15.89l.62-.36C7.08,15.26,7.2,14.9,7,14.53Z"/><path class="cls-1" d="M7.69,13.06l.25-.14,1.35,2.33L9,15.39Z"/><path class="cls-1" d="M11.35,12.5l.24-.14.52.89a1.53,1.53,0,0,1-.69.8,1.37,1.37,0,1,1-1.37-2.38,1.32,1.32,0,0,1,1.06-.17l-.06.25a1.08,1.08,0,0,0-.86.13,1.12,1.12,0,1,0,1.11,1.94,1.14,1.14,0,0,0,.51-.53Z"/><path class="cls-1" d="M12,10.6l.24-.15,1.36,2.34-.25.14Z"/><path class="cls-1" d="M15.24,8.69,16.59,11l-.2.12-2.6-1L14.89,12l-.25.15L13.29,9.82l.2-.12,2.6,1L15,8.83Z"/><path class="cls-1" d="M18.79,8.92l-1.3.76.08.78-.26.15L17,7.66l.24-.14,2.42,1.71-.26.16Zm-.2-.14L17.3,7.84l.17,1.58Z"/><path class="cls-1" d="M19.06,6.48l.25-.14,1.23,2.12,1.31-.76.12.22-1.55.9Z"/><polygon class="cls-1" points="8.74 6.62 9.55 7.17 10.47 6.82 10.19 7.76 10.81 8.52 9.84 8.55 9.31 9.37 8.97 8.45 8.03 8.2 8.8 7.6 8.74 6.62"/><polygon class="cls-1" points="11.64 5.76 12.04 6.03 12.49 5.86 12.35 6.32 12.66 6.69 12.18 6.7 11.92 7.11 11.76 6.66 11.29 6.53 11.67 6.24 11.64 5.76"/><polygon class="cls-1" points="6.52 8.67 6.91 8.94 7.36 8.77 7.22 9.23 7.53 9.6 7.05 9.61 6.79 10.02 6.63 9.57 6.17 9.44 6.54 9.15 6.52 8.67"/><polygon class="cls-1" points="13.87 15.31 14.68 15.87 15.59 15.51 15.32 16.45 15.94 17.21 14.96 17.24 14.43 18.07 14.1 17.14 13.15 16.89 13.93 16.29 13.87 15.31"/><polygon class="cls-1" points="16.77 14.45 17.17 14.72 17.61 14.55 17.48 15.01 17.78 15.38 17.3 15.39 17.05 15.8 16.88 15.35 16.42 15.22 16.8 14.93 16.77 14.45"/><polygon class="cls-1" points="11.64 17.36 12.04 17.63 12.49 17.46 12.35 17.92 12.66 18.29 12.18 18.3 11.92 18.71 11.76 18.26 11.29 18.14 11.67 17.84 11.64 17.36"/></svg>